%FSLAX34Y34*%
%MOMM*%
%LNCOPPER_TOP*%
G71*
G01*
%ADD10C, 0.002*%
%ADD11R, 0.420X1.650*%
%ADD12R, 1.600X1.300*%
%ADD13R, 1.300X1.600*%
%ADD14R, 2.800X1.300*%
%ADD15C, 2.800*%
%ADD16R, 2.300X2.600*%
%ADD17R, 0.300X0.790*%
%ADD18C, 0.300*%
%ADD19R, 1.500X2.000*%
%ADD20R, 0.800X3.200*%
%ADD21C, 2.200*%
%ADD22R, 2.600X2.300*%
%ADD23R, 0.790X0.300*%
%ADD24C, 1.900*%
%ADD25C, 0.400*%
%ADD26R, 2.500X0.500*%
%ADD27C, 1.000*%
%ADD28R, 0.600X1.200*%
%ADD29R, 2.500X2.000*%
%LPD*%
G54D10*
X0Y750000D02*
X1000000Y750000D01*
X1000000Y0D01*
X0Y0D01*
X0Y750000D01*
X522164Y349190D02*
G54D11*
D03*
X528663Y349190D02*
G54D11*
D03*
X535164Y349190D02*
G54D11*
D03*
X541663Y349190D02*
G54D11*
D03*
X548163Y349190D02*
G54D11*
D03*
X554663Y349190D02*
G54D11*
D03*
X561163Y349190D02*
G54D11*
D03*
X567664Y349190D02*
G54D11*
D03*
X574163Y349190D02*
G54D11*
D03*
X580663Y349190D02*
G54D11*
D03*
X587163Y349190D02*
G54D11*
D03*
X593663Y349190D02*
G54D11*
D03*
X600164Y349190D02*
G54D11*
D03*
X606664Y349190D02*
G54D11*
D03*
X522163Y419190D02*
G54D11*
D03*
X528663Y419190D02*
G54D11*
D03*
X535163Y419190D02*
G54D11*
D03*
X541663Y419190D02*
G54D11*
D03*
X548163Y419190D02*
G54D11*
D03*
X554663Y419190D02*
G54D11*
D03*
X561163Y419190D02*
G54D11*
D03*
X567663Y419190D02*
G54D11*
D03*
X574163Y419190D02*
G54D11*
D03*
X580663Y419190D02*
G54D11*
D03*
X587163Y419190D02*
G54D11*
D03*
X593663Y419190D02*
G54D11*
D03*
X600163Y419190D02*
G54D11*
D03*
X606663Y419190D02*
G54D11*
D03*
X534753Y478415D02*
G54D12*
D03*
X534752Y459415D02*
G54D12*
D03*
X617387Y482867D02*
G54D13*
D03*
X598387Y482867D02*
G54D13*
D03*
X648740Y482992D02*
G54D14*
D03*
X689240Y482992D02*
G54D14*
D03*
X600985Y441945D02*
G54D12*
D03*
X600985Y460945D02*
G54D12*
D03*
X362200Y458800D02*
G54D15*
D03*
X362200Y537800D02*
G54D15*
D03*
X362200Y232300D02*
G54D15*
D03*
X362200Y311300D02*
G54D15*
D03*
X452043Y536577D02*
G54D16*
D03*
X452043Y555776D02*
G54D17*
D03*
X452043Y517377D02*
G54D17*
D03*
X447043Y517377D02*
G54D17*
D03*
X442043Y517377D02*
G54D17*
D03*
X457043Y517377D02*
G54D17*
D03*
X462043Y517376D02*
G54D17*
D03*
X447043Y555776D02*
G54D17*
D03*
X442043Y555776D02*
G54D17*
D03*
X457043Y555776D02*
G54D17*
D03*
X462043Y555776D02*
G54D17*
D03*
X444858Y579832D02*
G54D13*
D03*
G36*
X457358Y587831D02*
X470358Y587832D01*
X470358Y571832D01*
X457358Y571831D01*
X457358Y587831D01*
G37*
G54D18*
X457043Y558976D02*
X457043Y567776D01*
X458743Y569476D01*
X462243Y569476D01*
X463843Y571076D01*
X463843Y583016D01*
X463858Y583032D01*
G54D18*
X452058Y558876D02*
X452058Y567676D01*
X450358Y569376D01*
X446858Y569376D01*
X445258Y570976D01*
X445258Y582916D01*
X445243Y582932D01*
X420457Y581631D02*
G54D12*
D03*
X420457Y562631D02*
G54D12*
D03*
G54D18*
X447043Y555876D02*
X447043Y562191D01*
X445710Y563524D01*
X431810Y563524D01*
X430710Y562424D01*
X420764Y562424D01*
X420458Y562731D01*
X614110Y571140D02*
G54D19*
D03*
X634610Y591140D02*
G54D20*
D03*
X649610Y591139D02*
G54D20*
D03*
X664610Y591140D02*
G54D20*
D03*
X685110Y571140D02*
G54D19*
D03*
X555500Y218600D02*
G54D21*
D03*
X505500Y218600D02*
G54D21*
D03*
X505500Y550100D02*
G54D21*
D03*
X555500Y550100D02*
G54D21*
D03*
X463647Y467533D02*
G54D22*
D03*
X444447Y467533D02*
G54D23*
D03*
X482847Y467533D02*
G54D23*
D03*
X482847Y462533D02*
G54D23*
D03*
X482847Y457533D02*
G54D23*
D03*
X482847Y472533D02*
G54D23*
D03*
X482847Y477533D02*
G54D23*
D03*
X444447Y462533D02*
G54D23*
D03*
X444447Y457533D02*
G54D23*
D03*
X444447Y472533D02*
G54D23*
D03*
X444447Y477533D02*
G54D23*
D03*
X420392Y460348D02*
G54D12*
D03*
X420392Y479348D02*
G54D12*
D03*
G54D18*
X441247Y472533D02*
X432447Y472533D01*
X430747Y474233D01*
X430747Y477733D01*
X429147Y479333D01*
X417207Y479333D01*
X417192Y479348D01*
G54D18*
X441347Y467548D02*
X432547Y467548D01*
X430847Y465848D01*
X430847Y462348D01*
X429247Y460748D01*
X417307Y460748D01*
X417292Y460733D01*
X418592Y435948D02*
G54D13*
D03*
G36*
X431092Y443948D02*
X444092Y443948D01*
X444093Y427948D01*
X431093Y427948D01*
X431092Y443948D01*
G37*
G54D18*
X444347Y462533D02*
X438032Y462533D01*
X436699Y461200D01*
X436699Y447300D01*
X437799Y446200D01*
X437799Y436254D01*
X437493Y435948D01*
X464147Y322534D02*
G54D22*
D03*
X444947Y322534D02*
G54D23*
D03*
X483347Y322534D02*
G54D23*
D03*
X483347Y317534D02*
G54D23*
D03*
X483347Y312534D02*
G54D23*
D03*
X483347Y327534D02*
G54D23*
D03*
X483347Y332534D02*
G54D23*
D03*
X444947Y317534D02*
G54D23*
D03*
X444947Y312534D02*
G54D23*
D03*
X444947Y327534D02*
G54D23*
D03*
X444947Y332534D02*
G54D23*
D03*
X420892Y315349D02*
G54D12*
D03*
X420892Y334349D02*
G54D12*
D03*
G54D18*
X441747Y327534D02*
X432947Y327534D01*
X431247Y329234D01*
X431247Y332734D01*
X429647Y334334D01*
X417707Y334334D01*
X417692Y334349D01*
G54D18*
X441847Y322549D02*
X433047Y322549D01*
X431347Y320849D01*
X431347Y317349D01*
X429747Y315749D01*
X417807Y315749D01*
X417792Y315734D01*
X419093Y290948D02*
G54D13*
D03*
X438093Y290948D02*
G54D13*
D03*
G54D18*
X444847Y317534D02*
X438532Y317534D01*
X437199Y316201D01*
X437199Y302301D01*
X438299Y301201D01*
X438299Y291255D01*
X437993Y290948D01*
X430190Y234138D02*
G54D16*
D03*
X430190Y214938D02*
G54D17*
D03*
X430190Y253338D02*
G54D17*
D03*
X435190Y253338D02*
G54D17*
D03*
X440190Y253338D02*
G54D17*
D03*
X425190Y253338D02*
G54D17*
D03*
X420190Y253338D02*
G54D17*
D03*
X435190Y214938D02*
G54D17*
D03*
X440190Y214938D02*
G54D17*
D03*
X425190Y214938D02*
G54D17*
D03*
X420190Y214938D02*
G54D17*
D03*
X437375Y190882D02*
G54D13*
D03*
X418375Y190883D02*
G54D13*
D03*
G54D18*
X425190Y211738D02*
X425190Y202938D01*
X423490Y201238D01*
X419990Y201238D01*
X418390Y199638D01*
X418390Y187698D01*
X418375Y187683D01*
G54D18*
X430175Y211838D02*
X430175Y203038D01*
X431875Y201338D01*
X435375Y201338D01*
X436975Y199738D01*
X436975Y187798D01*
X436990Y187783D01*
X461775Y189083D02*
G54D12*
D03*
X461775Y208083D02*
G54D12*
D03*
G54D18*
X435190Y214838D02*
X435190Y208523D01*
X436523Y207190D01*
X450423Y207190D01*
X451523Y208290D01*
X461469Y208290D01*
X461775Y207983D01*
X676400Y280699D02*
G54D24*
D03*
X676400Y255300D02*
G54D24*
D03*
X651000Y280699D02*
G54D24*
D03*
X651000Y255300D02*
G54D24*
D03*
X701590Y196638D02*
G54D19*
D03*
X681090Y176638D02*
G54D20*
D03*
G36*
X662089Y192638D02*
X670089Y192638D01*
X670090Y160638D01*
X662090Y160638D01*
X662089Y192638D01*
G37*
X651090Y176638D02*
G54D20*
D03*
X600590Y196638D02*
G54D19*
D03*
X621090Y176638D02*
G54D20*
D03*
X636090Y176638D02*
G54D20*
D03*
X625600Y280699D02*
G54D24*
D03*
X625600Y255300D02*
G54D24*
D03*
X698700Y308600D02*
G54D24*
D03*
X676400Y229900D02*
G54D24*
D03*
X651000Y229900D02*
G54D24*
D03*
X625600Y229900D02*
G54D24*
D03*
G54D25*
X681090Y176638D02*
X681090Y202259D01*
X676275Y207074D01*
X676275Y229774D01*
X676400Y229900D01*
G54D25*
X636090Y176638D02*
X636090Y201814D01*
X641350Y207074D01*
X647700Y207074D01*
X650875Y210250D01*
X650875Y229774D01*
X651000Y229900D01*
G54D25*
X621090Y176638D02*
X621090Y205864D01*
X625475Y210250D01*
X625475Y229774D01*
X625600Y229900D01*
X649200Y369158D02*
G54D26*
D03*
X649200Y377158D02*
G54D26*
D03*
X649200Y385158D02*
G54D26*
D03*
X649200Y393158D02*
G54D26*
D03*
X649200Y401158D02*
G54D26*
D03*
G54D27*
X505500Y550100D02*
X505500Y576500D01*
X502200Y579800D01*
X463890Y579800D01*
X463858Y579832D01*
G54D27*
X555500Y550100D02*
X555500Y595000D01*
X550700Y599800D01*
X448200Y599800D01*
X445700Y597300D01*
X445700Y580674D01*
X444858Y579832D01*
G54D27*
X362200Y301300D02*
X362200Y327800D01*
X368700Y334300D01*
X422843Y334300D01*
X422892Y334349D01*
G54D27*
X437375Y190882D02*
X437375Y174625D01*
X443200Y168800D01*
X498700Y168800D01*
X505200Y175300D01*
X505200Y218300D01*
X505500Y218600D01*
G54D27*
X418375Y190883D02*
X418375Y161625D01*
X426700Y153300D01*
X546700Y153300D01*
X555200Y161800D01*
X555200Y218300D01*
X555500Y218600D01*
X420610Y538640D02*
G54D24*
D03*
X462610Y435640D02*
G54D24*
D03*
X462610Y231640D02*
G54D24*
D03*
X462610Y290640D02*
G54D24*
D03*
G54D18*
X442043Y555776D02*
X437747Y555776D01*
X420610Y538640D01*
G54D18*
X444447Y457533D02*
X444447Y453802D01*
X462610Y435640D01*
G54D18*
X444947Y312534D02*
X444947Y308302D01*
X462610Y290640D01*
G54D18*
X440190Y214938D02*
X445908Y214938D01*
X462610Y231640D01*
X645892Y538348D02*
G54D13*
D03*
G36*
X658392Y546348D02*
X671392Y546348D01*
X671392Y530348D01*
X658392Y530348D01*
X658392Y546348D01*
G37*
X622610Y538640D02*
G54D24*
D03*
G54D25*
X622610Y538640D02*
X645201Y538640D01*
X645892Y537948D01*
G54D25*
X645892Y538348D02*
X645892Y555692D01*
X649500Y559300D01*
X649500Y591030D01*
X649610Y591140D01*
G54D18*
X440190Y253338D02*
X440190Y267790D01*
G54D18*
X482847Y462533D02*
X493667Y462533D01*
X493700Y462500D01*
G54D18*
X483347Y317534D02*
X493666Y317534D01*
X493700Y317500D01*
G54D18*
X483347Y312534D02*
X493466Y312534D01*
X493700Y312500D01*
G54D25*
X548163Y349190D02*
X548163Y283837D01*
X552100Y279900D01*
X573500Y279900D01*
X582900Y270500D01*
X582900Y156500D01*
X586100Y153300D01*
X648500Y153300D01*
X651100Y155900D01*
X651100Y176628D01*
X651090Y176638D01*
G54D25*
X600163Y419190D02*
X600163Y380236D01*
X603300Y377100D01*
X654142Y377100D01*
X654200Y377158D01*
G54D25*
X606663Y419190D02*
X606663Y386537D01*
X608100Y385100D01*
X654142Y385100D01*
X654200Y385158D01*
X601053Y326516D02*
G54D12*
D03*
X601053Y307516D02*
G54D12*
D03*
X628100Y460000D02*
G54D24*
D03*
G54D25*
X598387Y482867D02*
X598387Y493786D01*
X601700Y497100D01*
X647300Y497100D01*
X650100Y494300D01*
X650100Y484352D01*
X648740Y482992D01*
G54D25*
X598387Y482867D02*
X577804Y482867D01*
X574353Y482816D01*
G54D25*
X574153Y482816D02*
X574153Y419201D01*
X574163Y419190D01*
G54D25*
X664610Y591140D02*
X664610Y538630D01*
X664892Y538348D01*
X664892Y511492D01*
X662100Y508700D01*
X409700Y508700D01*
X403300Y515100D01*
X403300Y557100D01*
X408500Y562300D01*
X420126Y562300D01*
X420457Y562631D01*
X628100Y309600D02*
G54D24*
D03*
G54D25*
X617387Y482867D02*
X617387Y469314D01*
X627100Y459600D01*
G54D25*
X601053Y326516D02*
X611184Y326516D01*
X628100Y309600D01*
G54D25*
X628100Y309600D02*
X628100Y364100D01*
X633100Y369100D01*
X654142Y369100D01*
X654200Y369158D01*
G54D18*
X493667Y462533D02*
X493667Y507467D01*
X493700Y507500D01*
X495753Y374715D02*
G54D12*
D03*
X495754Y393715D02*
G54D12*
D03*
G54D25*
X461775Y208083D02*
X476683Y208083D01*
X479300Y210700D01*
X479300Y267500D01*
G54D25*
X593663Y419190D02*
X593663Y380464D01*
X590100Y376900D01*
X545900Y376900D01*
X541500Y372500D01*
X541500Y349354D01*
X541663Y349190D01*
G54D25*
X593663Y419190D02*
X593663Y434623D01*
X600985Y441945D01*
X511753Y478415D02*
G54D12*
D03*
X511752Y459415D02*
G54D12*
D03*
G54D25*
X574163Y420690D02*
X574163Y396664D01*
X572300Y394800D01*
X525300Y394800D01*
X522100Y391600D01*
X522100Y377200D01*
X519300Y374400D01*
X496068Y374400D01*
X495753Y374715D01*
X553450Y460050D02*
G54D28*
D03*
X562950Y460050D02*
G54D28*
D03*
X553450Y478050D02*
G54D28*
D03*
X562950Y478050D02*
G54D28*
D03*
G54D25*
X567700Y412800D02*
X567700Y405300D01*
X567200Y404800D01*
G54D25*
X534753Y478415D02*
X552815Y478415D01*
X553450Y479050D01*
G54D25*
X511753Y478415D02*
X511753Y491352D01*
X514200Y493800D01*
X560200Y493800D01*
X563200Y490800D01*
X563200Y478300D01*
X562950Y478050D01*
G54D25*
X562950Y460050D02*
X562950Y434550D01*
X561200Y432800D01*
X561200Y419227D01*
X561163Y419190D01*
G54D25*
X553450Y460050D02*
X553450Y433550D01*
X554700Y432300D01*
X554700Y419227D01*
X554663Y419190D01*
G54D25*
X587200Y412800D02*
X587200Y405300D01*
X586700Y404800D01*
G54D25*
X587200Y426800D02*
X587200Y434300D01*
X586700Y434800D01*
X496110Y435640D02*
G54D24*
D03*
G54D25*
X511752Y459415D02*
X511752Y451282D01*
X496110Y435640D01*
G54D25*
X511752Y459415D02*
X534752Y459415D01*
X389200Y607300D02*
G54D24*
D03*
X389200Y166300D02*
G54D24*
D03*
G54D25*
X408500Y562300D02*
X395200Y562300D01*
X388700Y568800D01*
X388700Y606800D01*
X389200Y607300D01*
X362200Y537800D02*
G54D24*
D03*
X362200Y508800D02*
G54D24*
D03*
X362200Y458800D02*
G54D24*
D03*
X362200Y486800D02*
G54D24*
D03*
X362200Y283300D02*
G54D24*
D03*
X362200Y261300D02*
G54D24*
D03*
X541200Y240800D02*
G54D24*
D03*
X519200Y240800D02*
G54D24*
D03*
X541200Y531800D02*
G54D24*
D03*
X519200Y531800D02*
G54D24*
D03*
G54D27*
X362200Y232300D02*
X380200Y232300D01*
X387200Y239300D01*
X387200Y310300D01*
X392700Y315800D01*
X418441Y315800D01*
X418892Y315349D01*
G54D27*
X362200Y537800D02*
X362200Y508800D01*
G54D27*
X362200Y458800D02*
X362200Y486800D01*
G54D27*
X505500Y550100D02*
X505500Y545500D01*
X519200Y531800D01*
G54D27*
X555500Y550100D02*
X555500Y546100D01*
X541200Y531800D01*
G54D27*
X362200Y311300D02*
X362200Y283300D01*
G54D27*
X362200Y261300D02*
X362200Y232300D01*
G54D27*
X505500Y218600D02*
X505500Y227100D01*
X519200Y240800D01*
G54D27*
X555500Y218600D02*
X555500Y226500D01*
X541200Y240800D01*
G54D25*
X389200Y166300D02*
X389200Y197300D01*
X405700Y213800D01*
X405700Y262800D01*
X410700Y267800D01*
X440190Y267790D01*
X479010Y267790D01*
X479300Y267500D01*
X487400Y267500D01*
X493200Y273300D01*
X493200Y317000D01*
X493200Y295000D01*
G54D25*
X438093Y290948D02*
X438093Y268693D01*
X437700Y268300D01*
G54D25*
X522164Y349190D02*
X522164Y337336D01*
X524200Y335300D01*
X538700Y335300D01*
X540700Y333300D01*
X540700Y280800D01*
X548700Y272800D01*
X569700Y272800D01*
X575700Y266800D01*
X575700Y152800D01*
X582200Y146300D01*
X662200Y146300D01*
X666200Y150300D01*
X666200Y176528D01*
X666090Y176638D01*
G54D18*
X493667Y462533D02*
X493667Y452767D01*
X491200Y450300D01*
X482200Y450300D01*
X479200Y447300D01*
X479200Y421800D01*
X476200Y418800D01*
X440200Y418800D01*
X437700Y421300D01*
X437700Y435840D01*
X437592Y435948D01*
G54D27*
X362200Y537800D02*
X384200Y537800D01*
X387700Y534300D01*
X387700Y483300D01*
X391700Y479300D01*
X420344Y479300D01*
X420392Y479348D01*
G54D27*
X362200Y458800D02*
X388200Y458800D01*
X389700Y460300D01*
X420344Y460300D01*
X420392Y460348D01*
X649200Y341158D02*
G54D29*
D03*
X649200Y429158D02*
G54D29*
D03*
X704200Y341158D02*
G54D29*
D03*
X704200Y429158D02*
G54D29*
D03*
M02*
