%FSLAX34Y34*%
%MOMM*%
%LNCOPPER_BOTTOM*%
G71*
G01*
%ADD10C, 0.002*%
%ADD11C, 1.400*%
%ADD12C, 3.400*%
%ADD13C, 2.800*%
%ADD14C, 2.500*%
%ADD15C, 1.200*%
%ADD16C, 1.800*%
%ADD17C, 0.800*%
%ADD18C, 0.300*%
%ADD19C, 0.100*%
%ADD20C, 0.633*%
%ADD21C, 2.800*%
%ADD22C, 2.200*%
%ADD23C, 1.900*%
%ADD24C, 0.400*%
%ADD25C, 1.000*%
%LPD*%
G54D10*
X0Y750000D02*
X1000000Y750000D01*
X1000000Y0D01*
X0Y0D01*
X0Y750000D01*
G36*
X0Y750000D02*
X1000000Y750000D01*
X1000000Y0D01*
X0Y0D01*
X0Y750000D01*
G37*
%LPC*%
G54D11*
X214200Y645550D02*
X724200Y645550D01*
X724200Y124550D01*
X214200Y124550D01*
X214200Y645550D01*
X362200Y458800D02*
G54D12*
D03*
X362200Y537800D02*
G54D12*
D03*
X362200Y232300D02*
G54D12*
D03*
X362200Y311300D02*
G54D12*
D03*
X555500Y218600D02*
G54D13*
D03*
X505500Y218600D02*
G54D13*
D03*
X505500Y550100D02*
G54D13*
D03*
X555500Y550100D02*
G54D13*
D03*
X676400Y280699D02*
G54D14*
D03*
X676400Y255300D02*
G54D14*
D03*
X651000Y280699D02*
G54D14*
D03*
X651000Y255300D02*
G54D14*
D03*
X625600Y280699D02*
G54D14*
D03*
X625600Y255300D02*
G54D14*
D03*
X698700Y308600D02*
G54D14*
D03*
X676400Y229900D02*
G54D14*
D03*
X651000Y229900D02*
G54D14*
D03*
X625600Y229900D02*
G54D14*
D03*
G54D15*
X676400Y229900D02*
X676400Y255300D01*
G54D15*
X625600Y229900D02*
X625600Y255300D01*
G54D15*
X651000Y229900D02*
X651000Y255300D01*
X420610Y538640D02*
G54D14*
D03*
X462610Y435640D02*
G54D14*
D03*
X462610Y231640D02*
G54D14*
D03*
X462610Y290640D02*
G54D14*
D03*
G54D15*
X462610Y231640D02*
X462610Y290640D01*
X462610Y435640D01*
X462610Y515210D01*
X462700Y515300D01*
X622610Y538640D02*
G54D14*
D03*
G54D15*
X622610Y538640D02*
X622610Y519410D01*
X619300Y516100D01*
X424900Y516100D01*
X420500Y520500D01*
X420500Y538530D01*
X420610Y538640D01*
X628100Y460000D02*
G54D14*
D03*
G54D15*
X628100Y309600D02*
X628100Y459600D01*
X628100Y309600D02*
G54D14*
D03*
X496110Y435640D02*
G54D14*
D03*
G54D15*
X628100Y460000D02*
X520471Y460000D01*
X496110Y435640D01*
X389200Y607300D02*
G54D14*
D03*
X389200Y166300D02*
G54D14*
D03*
G54D15*
X389200Y607300D02*
X389200Y451800D01*
X397200Y443800D01*
X428200Y443800D01*
X435200Y436800D01*
X435200Y331800D01*
X429700Y326300D01*
X393700Y326300D01*
X389200Y321800D01*
X389200Y166300D01*
X362200Y537800D02*
G54D14*
D03*
X362200Y508800D02*
G54D14*
D03*
X362200Y458800D02*
G54D14*
D03*
X362200Y486800D02*
G54D14*
D03*
X362200Y283300D02*
G54D14*
D03*
X362200Y261300D02*
G54D14*
D03*
X541200Y240800D02*
G54D14*
D03*
X519200Y240800D02*
G54D14*
D03*
X541200Y531800D02*
G54D14*
D03*
X519200Y531800D02*
G54D14*
D03*
G54D16*
X362200Y311300D02*
X362200Y283300D01*
G54D16*
X362200Y232300D02*
X362200Y261300D01*
G54D16*
X505500Y550100D02*
X505500Y545500D01*
X519200Y531800D01*
G54D16*
X555500Y550100D02*
X555500Y546100D01*
X541200Y531800D01*
G54D16*
X505500Y218600D02*
X505500Y227100D01*
X519200Y240800D01*
G54D16*
X555500Y218600D02*
X555500Y226500D01*
X541200Y240800D01*
G54D16*
X362200Y537800D02*
X362200Y508800D01*
G54D16*
X362200Y458800D02*
X362200Y486800D01*
G36*
X219600Y412500D02*
X404800Y412500D01*
X404800Y357900D01*
X219600Y357900D01*
X219600Y412500D01*
G37*
G54D17*
X219600Y412500D02*
X404800Y412500D01*
X404800Y357900D01*
X219600Y357900D01*
X219600Y412500D01*
G36*
X519200Y531800D02*
X541200Y531800D01*
X541200Y522300D01*
X535700Y516800D01*
X521200Y516800D01*
X519200Y518800D01*
X519200Y531800D01*
G37*
G54D18*
X519200Y531800D02*
X541200Y531800D01*
X541200Y522300D01*
X535700Y516800D01*
X521200Y516800D01*
X519200Y518800D01*
X519200Y531800D01*
G36*
X625600Y280699D02*
X676400Y280699D01*
X676400Y229900D01*
X625600Y229900D01*
X625600Y280699D01*
G37*
G54D18*
X625600Y280699D02*
X676400Y280699D01*
X676400Y229900D01*
X625600Y229900D01*
X625600Y280699D01*
G54D19*
G75*
G01X680200Y407158D02*
G03X680200Y407158I-5000J0D01*
G01*
G36*
G75*
G01X680200Y407158D02*
G03X680200Y407158I-5000J0D01*
G01*
G37*
X680200Y407158D01*
G54D19*
G75*
G01X680200Y363158D02*
G03X680200Y363158I-5000J0D01*
G01*
G36*
G75*
G01X680200Y363158D02*
G03X680200Y363158I-5000J0D01*
G01*
G37*
X680200Y363158D01*
%LPD*%
G54D20*
G36*
X676400Y283866D02*
X689400Y283866D01*
X689400Y277532D01*
X676400Y277532D01*
X676400Y283866D01*
G37*
G36*
X676400Y277532D02*
X663400Y277532D01*
X663400Y283866D01*
X676400Y283866D01*
X676400Y277532D01*
G37*
G36*
X673233Y280699D02*
X673233Y293699D01*
X679567Y293699D01*
X679567Y280699D01*
X673233Y280699D01*
G37*
G54D20*
G36*
X651000Y283866D02*
X664000Y283866D01*
X664000Y277532D01*
X651000Y277532D01*
X651000Y283866D01*
G37*
G36*
X651000Y277532D02*
X638000Y277532D01*
X638000Y283866D01*
X651000Y283866D01*
X651000Y277532D01*
G37*
G36*
X647833Y280699D02*
X647833Y293699D01*
X654167Y293699D01*
X654167Y280699D01*
X647833Y280699D01*
G37*
G54D20*
G36*
X625600Y283866D02*
X638600Y283866D01*
X638600Y277532D01*
X625600Y277532D01*
X625600Y283866D01*
G37*
G36*
X625600Y277532D02*
X612600Y277532D01*
X612600Y283866D01*
X625600Y283866D01*
X625600Y277532D01*
G37*
G36*
X622433Y280699D02*
X622433Y293699D01*
X628767Y293699D01*
X628767Y280699D01*
X622433Y280699D01*
G37*
G54D20*
G36*
X695533Y308600D02*
X695533Y321600D01*
X701867Y321600D01*
X701867Y308600D01*
X695533Y308600D01*
G37*
G36*
X698700Y311767D02*
X711700Y311767D01*
X711700Y305433D01*
X698700Y305433D01*
X698700Y311767D01*
G37*
G36*
X701867Y308600D02*
X701867Y295600D01*
X695533Y295600D01*
X695533Y308600D01*
X701867Y308600D01*
G37*
G36*
X698700Y305433D02*
X685700Y305433D01*
X685700Y311767D01*
X698700Y311767D01*
X698700Y305433D01*
G37*
X362200Y458800D02*
G54D21*
D03*
X362200Y537800D02*
G54D21*
D03*
X362200Y232300D02*
G54D21*
D03*
X362200Y311300D02*
G54D21*
D03*
X555500Y218600D02*
G54D22*
D03*
X505500Y218600D02*
G54D22*
D03*
X505500Y550100D02*
G54D22*
D03*
X555500Y550100D02*
G54D22*
D03*
X676400Y280699D02*
G54D23*
D03*
X676400Y255300D02*
G54D23*
D03*
X651000Y280699D02*
G54D23*
D03*
X651000Y255300D02*
G54D23*
D03*
X625600Y280699D02*
G54D23*
D03*
X625600Y255300D02*
G54D23*
D03*
X698700Y308600D02*
G54D23*
D03*
X676400Y229900D02*
G54D23*
D03*
X651000Y229900D02*
G54D23*
D03*
X625600Y229900D02*
G54D23*
D03*
G54D24*
X676400Y229900D02*
X676400Y255300D01*
G54D24*
X625600Y229900D02*
X625600Y255300D01*
G54D24*
X651000Y229900D02*
X651000Y255300D01*
X420610Y538640D02*
G54D23*
D03*
X462610Y435640D02*
G54D23*
D03*
X462610Y231640D02*
G54D23*
D03*
X462610Y290640D02*
G54D23*
D03*
G54D24*
X462610Y231640D02*
X462610Y290640D01*
X462610Y435640D01*
X462610Y515210D01*
X462700Y515300D01*
X622610Y538640D02*
G54D23*
D03*
G54D24*
X622610Y538640D02*
X622610Y519410D01*
X619300Y516100D01*
X424900Y516100D01*
X420500Y520500D01*
X420500Y538530D01*
X420610Y538640D01*
X628100Y460000D02*
G54D23*
D03*
G54D24*
X628100Y309600D02*
X628100Y459600D01*
X628100Y309600D02*
G54D23*
D03*
X496110Y435640D02*
G54D23*
D03*
G54D24*
X628100Y460000D02*
X520471Y460000D01*
X496110Y435640D01*
X389200Y607300D02*
G54D23*
D03*
X389200Y166300D02*
G54D23*
D03*
G54D24*
X389200Y607300D02*
X389200Y451800D01*
X397200Y443800D01*
X428200Y443800D01*
X435200Y436800D01*
X435200Y331800D01*
X429700Y326300D01*
X393700Y326300D01*
X389200Y321800D01*
X389200Y166300D01*
X362200Y537800D02*
G54D23*
D03*
X362200Y508800D02*
G54D23*
D03*
X362200Y458800D02*
G54D23*
D03*
X362200Y486800D02*
G54D23*
D03*
X362200Y283300D02*
G54D23*
D03*
X362200Y261300D02*
G54D23*
D03*
X541200Y240800D02*
G54D23*
D03*
X519200Y240800D02*
G54D23*
D03*
X541200Y531800D02*
G54D23*
D03*
X519200Y531800D02*
G54D23*
D03*
G54D25*
X362200Y311300D02*
X362200Y283300D01*
G54D25*
X362200Y232300D02*
X362200Y261300D01*
G54D25*
X505500Y550100D02*
X505500Y545500D01*
X519200Y531800D01*
G54D25*
X555500Y550100D02*
X555500Y546100D01*
X541200Y531800D01*
G54D25*
X505500Y218600D02*
X505500Y227100D01*
X519200Y240800D01*
G54D25*
X555500Y218600D02*
X555500Y226500D01*
X541200Y240800D01*
G54D25*
X362200Y537800D02*
X362200Y508800D01*
G54D25*
X362200Y458800D02*
X362200Y486800D01*
M02*
