%FSLAX34Y34*%
%MOMM*%
%LNSOLDERMASK_BOTTOM*%
G71*
G01*
%ADD10C, 0.002*%
%ADD11C, 2.800*%
%ADD12C, 2.200*%
%ADD13C, 1.900*%
%LPD*%
G54D10*
X0Y750000D02*
X1000000Y750000D01*
X1000000Y0D01*
X0Y0D01*
X0Y750000D01*
X362200Y458800D02*
G54D11*
D03*
X362200Y537800D02*
G54D11*
D03*
X362200Y232300D02*
G54D11*
D03*
X362200Y311300D02*
G54D11*
D03*
X555500Y218600D02*
G54D12*
D03*
X505500Y218600D02*
G54D12*
D03*
X505500Y550100D02*
G54D12*
D03*
X555500Y550100D02*
G54D12*
D03*
X676400Y280699D02*
G54D13*
D03*
X676400Y255300D02*
G54D13*
D03*
X651000Y280699D02*
G54D13*
D03*
X651000Y255300D02*
G54D13*
D03*
X625600Y280699D02*
G54D13*
D03*
X625600Y255300D02*
G54D13*
D03*
X698700Y308600D02*
G54D13*
D03*
X676400Y229900D02*
G54D13*
D03*
X651000Y229900D02*
G54D13*
D03*
X625600Y229900D02*
G54D13*
D03*
X420610Y538640D02*
G54D13*
D03*
X462610Y435640D02*
G54D13*
D03*
X462610Y231640D02*
G54D13*
D03*
X462610Y290640D02*
G54D13*
D03*
X622610Y538640D02*
G54D13*
D03*
X628100Y460000D02*
G54D13*
D03*
X628100Y309600D02*
G54D13*
D03*
X496110Y435640D02*
G54D13*
D03*
X389200Y607300D02*
G54D13*
D03*
X389200Y166300D02*
G54D13*
D03*
X362200Y537800D02*
G54D13*
D03*
X362200Y508800D02*
G54D13*
D03*
X362200Y458800D02*
G54D13*
D03*
X362200Y486800D02*
G54D13*
D03*
X362200Y283300D02*
G54D13*
D03*
X362200Y261300D02*
G54D13*
D03*
X541200Y240800D02*
G54D13*
D03*
X519200Y240800D02*
G54D13*
D03*
X541200Y531800D02*
G54D13*
D03*
X519200Y531800D02*
G54D13*
D03*
M02*
